<?xml version="1.0" encoding="UTF-8" standalone="no"?>
<svg
   viewBox="0 0 24 24"
   width="24"
   height="24"
   version="1.1"
   id="svg1"
   sodipodi:docname="folder-cloud.svg"
   inkscape:version="1.3.2 (091e20ef0f, 2023-11-25)"
   xmlns:inkscape="http://www.inkscape.org/namespaces/inkscape"
   xmlns:sodipodi="http://sodipodi.sourceforge.net/DTD/sodipodi-0.dtd"
   xmlns="http://www.w3.org/2000/svg"
   xmlns:svg="http://www.w3.org/2000/svg">
  <sodipodi:namedview
     id="namedview1"
     pagecolor="#ffffff"
     bordercolor="#000000"
     borderopacity="0.25"
     inkscape:showpageshadow="2"
     inkscape:pageopacity="0.0"
     inkscape:pagecheckerboard="0"
     inkscape:deskcolor="#d1d1d1"
     inkscape:zoom="33.25"
     inkscape:cx="11.984962"
     inkscape:cy="12"
     inkscape:window-width="1920"
     inkscape:window-height="1002"
     inkscape:window-x="0"
     inkscape:window-y="0"
     inkscape:window-maximized="1"
     inkscape:current-layer="svg1" />
  <defs
     id="defs3051">
    <style
       type="text/css"
       id="current-color-scheme">
      .ColorScheme-Text {
        color:#eff0f1;
      }
      </style>
  </defs>
  <path
     style="fill:currentColor;stroke:#eff0f1;stroke-opacity:1"
     d="m 17.8,9.3 c 1.940349,0.748667 3.214638,2.620278 3.2,4.7 0,2.761424 -2.238576,5 -5,5 H 7 C 4.790861,19 3,17.209139 3,15 2.9876231,13.165958 4.3937234,11.713311 6.1695786,11.254832 6.1693008,11.221499 5.9997222,11.033333 6,11 6,7.6862915 8.6862915,5 12,5 14.67591,4.979565 17.041881,6.7336471 17.8,9.3 Z M 6.8481794,10.808801 c -3.359e-4,0.335846 -0.022879,0.30904 0.043954,0.638169 C 6.8588025,11.446414 7.033331,11.999444 7,12 c -1.6568542,0 -3,1.343146 -3,3 0,1.656854 1.3431458,3 3,3 h 9 c 2.209139,0 4,-1.790861 4,-4 0.0012,-1.863367 -1.103922,-3.510477 -2.91951,-3.929735 C 16.647175,7.7021883 14.407379,6.0088299 12,6 9.2385763,6 6.8481794,8.0473775 6.8481794,10.808801 Z"
     class="ColorScheme-Text"
     id="path1"
     sodipodi:nodetypes="ccssccccccccssscccc" />
</svg>
