<?xml version="1.0" encoding="UTF-8" standalone="no"?>
<svg
   viewBox="0 0 24 24"
   width="24"
   height="24"
   version="1.1"
   id="svg8"
   sodipodi:docname="folder-cloud-no.svg"
   inkscape:version="1.2.2 (b0a8486541, 2022-12-01)"
   xmlns:inkscape="http://www.inkscape.org/namespaces/inkscape"
   xmlns:sodipodi="http://sodipodi.sourceforge.net/DTD/sodipodi-0.dtd"
   xmlns="http://www.w3.org/2000/svg"
   xmlns:svg="http://www.w3.org/2000/svg">
  <sodipodi:namedview
     id="namedview10"
     pagecolor="#ffffff"
     bordercolor="#000000"
     borderopacity="0.25"
     inkscape:showpageshadow="2"
     inkscape:pageopacity="0.0"
     inkscape:pagecheckerboard="0"
     inkscape:deskcolor="#d1d1d1"
     showgrid="false"
     inkscape:zoom="18.145833"
     inkscape:cx="16.835821"
     inkscape:cy="18.847302"
     inkscape:window-width="1920"
     inkscape:window-height="1007"
     inkscape:window-x="0"
     inkscape:window-y="0"
     inkscape:window-maximized="1"
     inkscape:current-layer="svg8" />
  <defs
     id="defs3051">
    <style
       type="text/css"
       id="current-color-scheme">
      .ColorScheme-Text {
        color:#232629;
      }
      </style>
  </defs>
  <g
     transform="translate(1,1)"
     id="g6">
    <path
       style="fill:currentColor"
       d="M 11 4 A 6 6 0 0 0 5 10 A 6 6 0 0 0 5 10.1 A 4 4 0 0 0 2 14 A 4 4 0 0 0 6 18 L 15 18 A 5 5 0 0 0 20 13 A 5 5 0 0 0 16.8 8.3 A 6 6 0 0 0 11 4 z M 11 5 A 5 5 0 0 1 15.9 9.1 A 4 4 0 0 1 19 13 A 4 4 0 0 1 15 17 L 6 17 A 3 3 0 0 1 3 14 A 3 3 0 0 1 6 11 A 3 3 0 0 1 6.1 11 A 5 5 0 0 1 6 10 A 5 5 0 0 1 11 5 z "
       class="ColorScheme-Text"
       id="path4" />
  </g>
  <path
     class="ColorScheme-NegativeText"
     d="M 4.2502868,4.9352432 5.2658897,3.9196326 21.485649,20.102198 20.470043,21.154993 Z"
     fill="currentColor"
     id="path138"
     style="color:#da4453;stroke-width:1.43628" />
</svg>
